<svg width="32" height="32" viewBox="0 0 56 56" fill="none" xmlns="http://www.w3.org/2000/svg">
<rect width="56" height="56" rx="8" fill="#0d0d0d"/>
<path fill-rule="evenodd" clip-rule="evenodd" d="M29.0373 41.3913C29.0579 45.2704 27.573 48.9226 24.8508 51.6875C22.1286 54.4525 18.4783 55.9794 14.6012 56C14.5806 56 14.5393 56 14.5187 56C10.6829 56 7.05323 54.5143 4.31039 51.8113C1.56754 49.067 0.0208154 45.4355 0.000195367 41.5564C-0.0410546 33.5505 6.45517 26.9889 14.4569 26.9477H32.5225C39.3693 26.9064 44.9169 21.3147 44.8756 14.4642C44.855 11.1422 43.5558 8.04714 41.2048 5.71553C38.8744 3.40455 35.7809 2.12526 32.4813 2.12526C32.4606 2.12526 32.44 2.12526 32.3988 2.12526C29.0785 2.14589 25.9851 3.44582 23.6547 5.79807C21.3449 8.12968 20.0663 11.2041 20.0663 14.4849V20.0766H17.9421V14.6087C17.9215 10.7295 19.4063 7.07737 22.1492 4.31245C24.8714 1.54753 28.5217 0.02063 32.3988 0C32.4194 0 32.4606 0 32.4813 0C36.3171 0 39.9468 1.48563 42.6896 4.18865C45.4531 6.91231 46.9792 10.5645 46.9998 14.4436C47.041 22.4495 40.5654 29.0111 32.5431 29.0523H14.4775C7.63066 29.0936 2.0831 34.6853 2.12435 41.5357C2.14497 44.8578 3.44422 47.9528 5.79523 50.2845C8.12562 52.5954 11.2191 53.8747 14.5187 53.8747C14.5393 53.8747 14.56 53.8747 14.6012 53.8747C17.9215 53.8541 21.0149 52.5542 23.3453 50.2019C25.6757 47.8497 26.9337 44.7133 26.9131 41.4119V35.944H29.0372L29.0373 41.3913ZM22.4379 24.5542H24.5621V14.5674C24.5415 10.1931 28.068 6.62342 32.44 6.60278C32.4607 6.60278 32.4607 6.60278 32.4813 6.60278C36.8327 6.60278 40.3592 10.1312 40.4005 14.4642C40.4211 16.5689 39.5962 18.5704 38.1113 20.0766C36.6265 21.5829 34.6467 22.4082 32.5431 22.4289H26.9337V24.5542H32.5431C35.2241 24.5335 37.7401 23.4812 39.6168 21.5829C41.4935 19.6846 42.5246 17.1466 42.504 14.4642C42.4628 8.9344 37.967 4.45688 32.4194 4.47751C26.9131 4.51878 22.4379 8.9963 22.4379 14.5055V24.5542ZM20.0663 24.5541V22.4289H0.000195367V24.5541H20.0663ZM15.5705 20.0766V17.9513H4.49599V20.0766H15.5705ZM31.4089 35.9234V38.0486H42.504V35.9234H31.4089ZM14.4569 31.4252C11.7759 31.4458 9.25989 32.4981 7.3832 34.3965C5.50652 36.2948 4.47537 38.8327 4.47537 41.5151C4.51662 47.0243 9.0124 51.5018 14.5187 51.5018C14.5393 51.5018 14.56 51.5018 14.5806 51.5018C20.0869 51.4606 24.5621 46.983 24.5621 41.4738V31.4252H22.4379V41.35C22.4379 41.3707 22.4379 41.3913 22.4379 41.4119C22.4585 45.7863 18.932 49.3559 14.5806 49.3765C14.56 49.3765 14.56 49.3765 14.5394 49.3765C10.1879 49.3765 6.66141 45.8482 6.62016 41.5151C6.59954 39.4104 7.42445 37.409 8.9093 35.9027C10.3941 34.3964 12.3739 33.5711 14.4775 33.5505H20.0663V31.4252H14.4569L14.4569 31.4252ZM26.9131 20.0766H29.0372V14.5261C29.0372 12.6278 30.584 11.1009 32.4606 11.1009C34.358 11.1009 35.884 12.6485 35.884 14.5261C35.884 16.4244 34.3373 17.9514 32.4606 17.9514H31.3883V20.0766H32.4606C35.5128 20.0766 38.0082 17.5799 38.0082 14.5261C38.0082 11.4724 35.5128 8.97567 32.4606 8.97567C29.4085 8.97567 26.9131 11.4723 26.9131 14.5261V20.0766ZM26.9131 31.4252V33.5505H46.9792V31.4252H26.9131ZM20.0663 35.9234H17.9421V41.4738C17.9421 43.3721 16.416 44.899 14.5187 44.899C12.6214 44.899 11.0953 43.3515 11.0953 41.4738C11.0953 39.5755 12.642 38.0486 14.5187 38.0486H15.5705V35.9234H14.5187C11.4665 35.9234 8.97117 38.42 8.97117 41.4738C8.97117 44.5276 11.4665 47.0243 14.5187 47.0243C17.5709 47.0243 20.0457 44.5276 20.0457 41.4738V35.9234L20.0663 35.9234Z" fill="white" transform="translate(5,0) scale(0.83)"/>
</svg>
